<svg width="200" height="200" viewBox="0 0 200 200" fill="none" xmlns="http://www.w3.org/2000/svg">
<g clip-path="url(#clip0_353_273)">
<rect width="200" height="200" rx="44" fill="black"/>
<path fill-rule="evenodd" clip-rule="evenodd" d="M112.785 49.4607C113.5 49.8566 114.062 50.4791 114.38 51.2292C114.698 51.9792 114.754 52.8135 114.54 53.5989L104.801 89.0694H140.334C141.048 89.0694 141.747 89.2769 142.345 89.6663C142.942 90.0557 143.412 90.6101 143.697 91.2612C143.981 91.9124 144.068 92.632 143.947 93.3315C143.825 94.0311 143.5 94.6801 143.013 95.1989L91.6791 149.84C91.12 150.436 90.3757 150.829 89.5652 150.956C88.7548 151.082 87.9251 150.935 87.2087 150.538C86.4924 150.141 85.9308 149.516 85.6139 148.765C85.2969 148.013 85.2429 147.177 85.4604 146.391L95.1991 110.926H59.6665C58.9519 110.926 58.2529 110.718 57.6554 110.329C57.0579 109.939 56.588 109.385 56.3034 108.734C56.0188 108.083 55.9319 107.363 56.0534 106.664C56.1749 105.964 56.4995 105.315 56.9873 104.796L108.321 50.1553C108.88 49.561 109.623 49.1698 110.432 49.0439C111.241 48.918 112.069 49.0648 112.785 49.4607Z" fill="white"/>
</g>
<defs>
<clipPath id="clip0_353_273">
<rect width="200" height="200" fill="white"/>
</clipPath>
</defs>
</svg>
