<svg width="200" height="200" viewBox="0 0 200 200" fill="none" xmlns="http://www.w3.org/2000/svg">
<g clip-path="url(#clip0_310_283)">
<rect width="200" height="200" rx="44" fill="#020617"/>
<path fill-rule="evenodd" clip-rule="evenodd" d="M55.0107 55.0107C64.6219 45.3995 77.6575 40 91.2498 40C104.842 40 117.878 45.3995 127.489 55.0107C137.1 64.6219 142.5 77.6575 142.5 91.2498C142.5 101.459 139.453 111.355 133.863 119.721L156.071 141.929C159.976 145.834 159.976 152.166 156.071 156.071C152.166 159.976 145.834 159.976 141.929 156.071L119.721 133.863C111.355 139.453 101.459 142.5 91.2498 142.5C77.6575 142.5 64.6219 137.1 55.0107 127.489C45.3995 117.878 40 104.842 40 91.2498C40 77.6575 45.3995 64.6219 55.0107 55.0107ZM91.2498 60C82.9618 60 75.0133 63.2924 69.1528 69.1528C63.2924 75.0133 60 82.9618 60 91.2498C60 99.5377 63.2924 107.486 69.1528 113.347C75.0133 119.207 82.9618 122.5 91.2498 122.5C99.5377 122.5 107.486 119.207 113.347 113.347C119.207 107.486 122.5 99.5377 122.5 91.2498C122.5 82.9618 119.207 75.0133 113.347 69.1528C107.486 63.2924 99.5377 60 91.2498 60Z" fill="white"/>
<path fill-rule="evenodd" clip-rule="evenodd" d="M96.2942 72.1762C96.5626 72.3275 96.7733 72.5656 96.8926 72.8523C97.0119 73.1391 97.0329 73.4581 96.9524 73.7584L93.3003 87.3206H106.625C106.893 87.3207 107.155 87.4 107.379 87.5489C107.603 87.6978 107.779 87.9097 107.886 88.1587C107.993 88.4077 108.026 88.6828 107.98 88.9503C107.934 89.2178 107.813 89.4659 107.63 89.6643L88.3797 110.556C88.17 110.784 87.8909 110.935 87.587 110.983C87.2831 111.031 86.9719 110.975 86.7033 110.823C86.4346 110.671 86.2241 110.433 86.1052 110.145C85.9863 109.858 85.9661 109.538 86.0476 109.238L89.6997 95.6775H76.3749C76.107 95.6775 75.8448 95.5982 75.6208 95.4493C75.3967 95.3004 75.2205 95.0884 75.1138 94.8395C75.007 94.5905 74.9745 94.3153 75.02 94.0479C75.0656 93.7804 75.1873 93.5322 75.3702 93.3339L94.6203 72.4417C94.83 72.2145 95.1087 72.0649 95.4121 72.0168C95.7154 71.9686 96.026 72.0248 96.2942 72.1762Z" fill="white"/>
</g>
<defs>
<clipPath id="clip0_310_283">
<rect width="200" height="200" fill="white"/>
</clipPath>
</defs>
</svg>
